<!-- public/search.svg -->

<svg width="32" height="32" viewBox="0 0 32 32" fill="none" xmlns="http://www.w3.org/2000/svg">
  <path d="M28 28L22.2094 22.2093L28 28ZM22.2094 22.2093C23.1999 21.2188 23.9856 20.0429 24.5217 18.7487C25.0577 17.4545 25.3336 16.0674 25.3336 14.6666C25.3336 13.2658 25.0577 11.8787 24.5217 10.5846C23.9856 9.2904 23.1999 8.11449 22.2094 7.12397C21.2188 6.13345 20.0429 5.34773 18.7488 4.81167C17.4546 4.2756 16.0675 3.99969 14.6667 3.99969C13.2659 3.99969 11.8788 4.2756 10.5846 4.81167C9.29046 5.34773 8.11455 6.13345 7.12403 7.12397C5.12359 9.12441 3.99976 11.8376 3.99976 14.6666C3.99976 17.4957 5.12359 20.2089 7.12403 22.2093C9.12447 24.2097 11.8376 25.3336 14.6667 25.3336C17.4957 25.3336 20.2089 24.2097 22.2094 22.2093Z" fill="#D64545" />
  <path d="M28 28L22.2094 22.2093M22.2094 22.2093C23.1999 21.2188 23.9856 20.0429 24.5217 18.7487C25.0577 17.4545 25.3336 16.0674 25.3336 14.6666C25.3336 13.2658 25.0577 11.8787 24.5217 10.5846C23.9856 9.2904 23.1999 8.11449 22.2094 7.12397C21.2188 6.13345 20.0429 5.34773 18.7488 4.81167C17.4546 4.2756 16.0675 3.99969 14.6667 3.99969C13.2659 3.99969 11.8788 4.2756 10.5846 4.81167C9.29046 5.34773 8.11455 6.13345 7.12403 7.12397C5.12359 9.12441 3.99976 11.8376 3.99976 14.6666C3.99976 17.4957 5.12359 20.2089 7.12403 22.2093C9.12447 24.2097 11.8376 25.3336 14.6667 25.3336C17.4957 25.3336 20.2089 24.2097 22.2094 22.2093Z" stroke="black" stroke-width="1.5" stroke-linecap="round" stroke-linejoin="round" />
</svg>