<svg xmlns="http://www.w3.org/2000/svg" version="1.1" xmlns:xlink="http://www.w3.org/1999/xlink" width="1000" height="1000"><metadata><rdf:RDF xmlns:rdf="http://www.w3.org/1999/02/22-rdf-syntax-ns#" xmlns:dc="http://purl.org/dc/elements/1.1/"><rdf:Description><dc:creator>RealFaviconGenerator</dc:creator><dc:source>https://realfavicongenerator.net</dc:source></rdf:Description></rdf:RDF></metadata><g clip-path="url(#SvgjsClipPath1147)"><rect width="1000" height="1000" fill="#ffffff"></rect><g transform="matrix(0.2570694087403599,0,0,0.2570694087403599,50,339.0745501285347)"><svg xmlns="http://www.w3.org/2000/svg" version="1.2" viewBox="0 0 3501 1252" width="3501" height="1252"><style>
		.s0 { fill: #b00000 } 
	</style><path id=" TURUQ " class="s0" aria-label="
TURUQ
" d="m384.8 1049h-229.9v-864.7h-155.9v-169.8h540.3v169.8h-154.5zm544.7 15.4q-118.8 0-186.5-38.3-66.4-39.6-93.2-113.7-26.8-75.4-26.8-183.9v-714h226v748.5q0 31.9 5.1 63.8 5.1 31.9 21.8 52.4 17.8 20.4 53.6 20.4 37 0 53.6-20.4 16.6-20.5 20.5-52.4 5.1-31.9 5.1-63.8v-748.5h227.3v714q0 108.5-28.1 183.9-26.8 74.1-93.2 113.7-66.4 38.3-185.2 38.3zm680.7-15.4h-228.6v-1034.5h284.8q104.8 0 181.4 23 76.6 23 118.8 83 43.4 58.8 43.4 167.3 0 63.9-10.2 113.7-10.2 49.8-38.3 86.9-26.8 35.7-77.9 60l141.7 500.6h-236.2l-113.7-463.6h-65.2zm0-881.2v286.1h63.9q48.5 0 75.4-16.6 26.8-17.9 37-49.9 11.5-33.2 11.5-79.1 0-66.5-24.3-103.5-24.2-37-89.4-37zm828.3 896.6q-118.8 0-186.5-38.4-66.4-39.6-93.2-113.6-26.9-75.4-26.9-183.9v-714h226.1v748.4q0 32 5.1 63.9 5.1 31.9 21.7 52.4 17.9 20.4 53.7 20.4 37 0 53.6-20.4 16.6-20.5 20.4-52.4 5.2-31.9 5.2-63.9v-748.4h227.3v714q0 108.5-28.1 183.9-26.8 74-93.2 113.6-66.5 38.4-185.2 38.4zm1030.7 52.3l-48.6 135.4q-28.1-12.8-67.7-40.9-39.5-29.3-79.1-67.7-38.4-39.6-65.2-80.4-5.1 1.3-10.2 1.3-5.1 0-11.5 0-116.2 0-183.9-40.9-67.7-40.9-97.1-117.5-29.3-76.6-29.3-182.7v-384.4q0-107.3 29.3-182.6 29.4-75.4 97.1-115 67.7-40.8 183.9-40.8 117.5 0 185.2 40.8 69 39.6 98.3 115 29.4 75.3 29.4 182.6v384.4q0 72.8-14 131.6-12.8 58.7-43.4 102.2-29.4 43.4-79.2 68.9 16.6 17.9 34.4 35.8 17.9 16.6 35.8 31.9 17.9 14.1 35.8 23zm-282.3-214.5q35.8 0 52.4-17.9 16.6-17.9 21.7-46 5.1-28.1 5.1-57.5v-498.1q0-30.6-5.1-57.5-5.1-28.1-21.7-45.9-16.6-17.9-52.4-17.9-35.7 0-52.4 17.9-15.3 17.8-20.4 45.9-3.8 26.9-3.8 57.5v498.1q0 29.4 3.8 57.5 5.1 28.1 20.4 46 16.7 17.9 52.4 17.9z"></path></svg></g></g><defs><clipPath id="SvgjsClipPath1147"><rect width="1000" height="1000" x="0" y="0" rx="500" ry="500"></rect></clipPath></defs></svg>